<?xml version="1.0" encoding="UTF-8" standalone="no"?>
<!DOCTYPE svg PUBLIC "-//W3C//DTD SVG 1.1//EN" "http://www.w3.org/Graphics/SVG/1.1/DTD/svg11.dtd">
<svg version="1.1" xmlns="http://www.w3.org/2000/svg" xmlns:xlink="http://www.w3.org/1999/xlink" preserveAspectRatio="xMidYMid meet" viewBox="0 0 100 100" width="100" height="100"><defs><path d="M95.31 48.5C95.31 75.27 73.96 97 47.66 97C21.36 97 0 75.27 0 48.5C0 21.74 21.36 0 47.66 0C73.96 0 95.31 21.74 95.31 48.5Z" id="cjMDtetkK"></path><path d="M14.01 14.64C9.45 19.41 5.91 24.98 3.51 31.18C1.18 37.17 0 43.5 0 50C0 56.49 1.18 62.82 3.51 68.81C5.91 75.01 9.45 80.58 14.01 85.35C18.58 90.13 23.9 93.82 29.84 96.34C35.57 98.77 41.63 100 47.84 100C54.05 100 60.11 98.76 65.84 96.34C71.77 93.82 77.1 90.13 81.66 85.35C86.23 80.58 89.77 75.02 92.17 68.81C94.5 62.82 95.67 56.49 95.67 50C95.67 43.5 94.49 37.17 92.17 31.18C89.77 24.98 86.23 19.41 81.66 14.64C77.1 9.87 71.78 6.17 65.84 3.66C60.11 1.23 54.05 0 47.84 0C41.63 0 35.57 1.23 29.84 3.66C23.9 6.17 18.58 9.87 14.01 14.64ZM5.65 65.74C2.78 57.3 2.29 48.15 4.2 39.48C5.09 37.63 6.11 35.86 7.26 34.16C7.62 33.64 7.94 33.09 8.33 32.58C9.41 33.25 18.04 38.59 19.12 39.26C19.12 39.35 19.12 39.45 19.12 39.54C19.09 45.61 19.68 51.64 20.86 57.58C20.86 57.6 20.86 57.62 20.87 57.64C20.03 59.02 13.33 69.99 12.5 71.36C12.32 71.27 12.13 71.16 11.96 71.05C9.65 69.53 7.53 67.79 5.65 65.74ZM49.8 96.76C41.44 97.14 33 95.09 25.53 90.61C27.34 90.95 41.82 93.65 43.63 93.98C43.77 94.08 43.91 94.16 44.06 94.24C45.92 95.24 47.83 96.07 49.8 96.76ZM22.63 86.85C20.14 83.68 17.89 80.32 15.96 76.74C15.47 75.83 14.92 74.94 14.5 73.99C15.34 72.62 22.03 61.65 22.86 60.28C23.05 60.33 23.26 60.38 23.49 60.45C28.72 61.91 34.05 62.95 39.41 63.76C39.72 63.81 39.98 63.85 40.21 63.87C41.21 65.69 49.23 80.18 50.23 81.99C48.49 84.55 46.73 87.09 44.94 89.61C44.64 90.03 44.32 90.43 43.99 90.83C39.72 90.03 24.77 87.25 22.63 86.85ZM74.12 87.92C73.81 85.3 73.27 82.74 72.51 80.23C73.58 78.15 82.13 61.46 83.2 59.37C86.15 57.97 88.99 56.38 91.63 54.41C91.98 54.15 92.26 53.87 92.49 53.55C91.71 64.33 87.39 74.88 79.52 83.11C77.82 84.89 76.01 86.49 74.12 87.92ZM80.23 58.46C79.19 60.48 70.93 76.6 69.89 78.61C69.84 78.62 69.78 78.64 69.72 78.65C64.13 79.74 58.5 80.32 52.83 80.34C51.8 78.48 43.55 63.57 42.51 61.71C44.12 58.59 45.71 55.47 47.29 52.34C48.36 50.22 49.41 48.08 50.46 45.94C52.6 45.72 69.67 43.88 71.8 43.65C74.41 47.66 76.89 51.75 79.04 56.06C79.44 56.85 79.83 57.65 80.23 58.46ZM71.54 40.49C69.46 40.72 52.83 42.5 50.75 42.73C50.5 42.38 50.24 42.05 49.97 41.72C47.52 38.82 45.05 35.93 42.58 33.03C42.6 33 42.63 32.98 42.65 32.96C41.65 31.92 40.66 30.88 39.66 29.84C40.24 28.01 44.87 13.44 45.45 11.62C45.85 11.51 46.25 11.42 46.65 11.37C49.8 11.04 52.95 10.66 56.1 10.47C58.04 10.36 59.98 10.29 61.94 10.44C63.37 12.12 74.83 25.62 76.26 27.31C75.77 28.93 75.29 30.57 74.71 32.16C73.7 34.96 72.62 37.72 71.54 40.49ZM88.69 30.77C86.01 28.84 83.15 27.26 80.15 25.97C79.68 25.77 79.2 25.59 78.71 25.41C77.3 23.75 66.02 10.47 64.62 8.81C64.71 8.09 64.76 7.37 64.79 6.65C70.15 8.93 75.17 12.34 79.52 16.88C83.47 21.01 86.53 25.73 88.69 30.77ZM33.61 5.86C36.83 7.03 39.76 8.74 42.52 10.77C41.98 12.47 37.66 26.09 37.11 27.79C37.09 27.8 37.06 27.81 37.03 27.82C35.93 28.3 34.8 28.73 33.71 29.25C29.22 31.38 24.85 33.74 20.73 36.57C19.66 35.91 11.12 30.63 10.06 29.97C10.07 29.62 10.13 29.27 10.24 28.96C10.96 26.96 11.66 24.95 12.47 23C13.1 21.49 13.81 20.04 14.59 18.62C15.09 18.03 15.62 17.45 16.16 16.88C21.23 11.59 27.22 7.83 33.59 5.6C33.56 5.66 33.52 5.72 33.49 5.77C33.55 5.82 33.57 5.85 33.61 5.86Z" id="apsu6ZnhQ"></path></defs><g><g><g><use xlink:href="#cjMDtetkK" opacity="1" fill="#ffffff" fill-opacity="1"></use></g><g><use xlink:href="#apsu6ZnhQ" opacity="1" fill="#000000" fill-opacity="1"></use></g></g></g></svg>